<?xml version="1.0" encoding="UTF-8"?>
<svg xmlns="http://www.w3.org/2000/svg" width="900" height="120" viewBox="0 0 900 120" preserveAspectRatio="xMaxYMid slice">
<defs><rect id="c-rod" x="-6" y="-2.3" width="12" height="4.6" rx="2.3" fill="#31608f" fill-opacity=".22" stroke="#31608f" stroke-opacity=".6" stroke-width=".9"/><path id="c-strand" d="M-7.5 0C-4.5-3-2 3 0 0 2-3 4.5 3 7.5 0" fill="none" stroke="#31608f" stroke-opacity=".6" stroke-width=".9" stroke-linecap="round"/></defs>
    <g transform="translate(834 99) rotate(-6) scale(1.035)"><g class="m a5"><g class="daughter right"><use href="#c-rod"/></g><g class="mother right"><use href="#c-rod"/></g></g></g>
    <g transform="translate(758 80) rotate(72) scale(1.057)"><g class="m a6"><g class="daughter down"><use href="#c-rod"/></g><g class="mother down"><use href="#c-rod"/></g></g></g>
    <g transform="translate(685 65) rotate(323) scale(1.004)"><g class="m a1"><use href="#c-rod"/></g></g>
    <g transform="translate(341 94) rotate(78) scale(1.002)"><g class="m b8"><use href="#c-strand"/></g></g>
    <g transform="translate(506 67) rotate(357) scale(0.979)"><g class="m a4"><use href="#c-rod"/></g></g>
    <g transform="translate(867 78) rotate(18) scale(1.099)"><g class="m a1"><use href="#c-rod"/></g></g>
    <g transform="translate(574 43) rotate(123) scale(0.958)"><g class="m a3"><use href="#c-rod"/></g></g>
    <g transform="translate(804 26) rotate(161) scale(0.93)"><g class="m a2"><use href="#c-rod"/></g></g>
    <g transform="translate(657 92) rotate(213) scale(0.952)"><g class="m b6"><use href="#c-strand"/></g></g>
    <g transform="translate(366 48) rotate(204) scale(0.952)"><g class="m a8"><use href="#c-rod"/></g></g>
    <g transform="translate(746 39) rotate(314) scale(0.965)"><g class="m b4"><use href="#c-strand"/></g></g>
    <g transform="translate(738 74) rotate(299) scale(0.954)"><g class="m a7"><use href="#c-rod"/></g></g>
    <g transform="translate(548 51) rotate(313) scale(0.922)"><g class="m a2"><use href="#c-rod"/></g></g>
    <g transform="translate(540 67) rotate(204) scale(0.965)"><g class="m b4"><use href="#c-strand"/></g></g>
    <g transform="translate(675 18) rotate(321) scale(0.962)"><g class="m a1"><use href="#c-rod"/></g></g>
    <g transform="translate(615 58) rotate(328) scale(1.014)"><g class="m a4"><use href="#c-rod"/></g></g>
    <g transform="translate(719 90) rotate(157) scale(0.94)"><g class="m a7"><use href="#c-rod"/></g></g>
    <g transform="translate(440 76) rotate(162) scale(0.914)"><g class="m b5"><use href="#c-strand"/></g></g>
    <g transform="translate(654 63) rotate(266) scale(0.941)"><g class="m a3"><use href="#c-rod"/></g></g>
    <g transform="translate(470 75) rotate(61) scale(1.008)"><g class="m a7"><use href="#c-rod"/></g></g>
    <g transform="translate(883 85) rotate(130) scale(0.978)"><g class="m b3"><use href="#c-strand"/></g></g>
    <g transform="translate(416 82) rotate(56) scale(1.047)"><g class="m a2"><use href="#c-rod"/></g></g>
    <g transform="translate(756 12) rotate(352) scale(1.061)"><g class="m b3"><use href="#c-strand"/></g></g>
    <g transform="translate(618 14) rotate(134) scale(0.983)"><g class="m a8"><use href="#c-rod"/></g></g>
    <g transform="translate(560 73) rotate(314) scale(0.92)"><g class="m a3"><use href="#c-rod"/></g></g>
    <g transform="translate(484 102) rotate(291) scale(1.046)"><g class="m b3"><use href="#c-strand"/></g></g>
    <g transform="translate(777 81) rotate(131) scale(1.051)"><g class="m b1"><use href="#c-strand"/></g></g>
    <g transform="translate(822 63) rotate(105) scale(0.979)"><g class="m a1"><use href="#c-rod"/></g></g>
    <g transform="translate(374 95) rotate(139) scale(1.032)"><g class="m b4"><use href="#c-strand"/></g></g>
    <g transform="translate(715 69) rotate(276) scale(0.96)"><g class="m b4"><use href="#c-strand"/></g></g>
    <g transform="translate(724 44) rotate(155) scale(1.083)"><g class="m b3"><use href="#c-strand"/></g></g>
    <g transform="translate(508 44) rotate(214) scale(1.067)"><g class="m a3"><use href="#c-rod"/></g></g>
    <g transform="translate(693 37) rotate(86) scale(1.058)"><g class="m a5"><use href="#c-rod"/></g></g>
    <g transform="translate(591 32) rotate(244) scale(1.091)"><g class="m a6"><use href="#c-rod"/></g></g>
    <g transform="translate(644 22) rotate(105) scale(0.947)"><g class="m a4"><use href="#c-rod"/></g></g>
    <g transform="translate(584 98) rotate(205) scale(1.009)"><g class="m a4"><use href="#c-rod"/></g></g>
    <g transform="translate(576 81) rotate(99) scale(1.046)"><g class="m b3"><use href="#c-strand"/></g></g>
    <g transform="translate(555 20) rotate(309) scale(1.06)"><g class="m b4"><use href="#c-strand"/></g></g>
    <g transform="translate(445 20) rotate(41) scale(0.978)"><g class="m a7"><use href="#c-rod"/></g></g>
    <g transform="translate(858 24) rotate(59) scale(0.928)"><g class="m a5"><use href="#c-rod"/></g></g>
    <g transform="translate(772 29) rotate(217) scale(1.025)"><g class="m a1"><use href="#c-rod"/></g></g>
    <g transform="translate(610 32) rotate(226) scale(0.921)"><g class="m a6"><use href="#c-rod"/></g></g>
    <g transform="translate(363 29) rotate(285) scale(1.041)"><g class="m a7"><use href="#c-rod"/></g></g>
    <g transform="translate(474 33) rotate(265) scale(0.901)"><g class="m a3"><use href="#c-rod"/></g></g>
    <g transform="translate(716 107) rotate(231) scale(0.991)"><g class="m b3"><use href="#c-strand"/></g></g>
    <g transform="translate(840 43) rotate(295) scale(0.996)"><g class="m a5"><use href="#c-rod"/></g></g>
    <g transform="translate(806 97) rotate(183) scale(0.924)"><g class="m b2"><use href="#c-strand"/></g></g>
    <g transform="translate(611 104) rotate(315) scale(0.996)"><g class="m a6"><use href="#c-rod"/></g></g>
    <g transform="translate(431 38) rotate(117) scale(1.0)"><g class="m b5"><use href="#c-strand"/></g></g>
    <g transform="translate(526 94) rotate(107) scale(0.974)"><g class="m a1"><use href="#c-rod"/></g></g>
    <g transform="translate(785 41) rotate(248) scale(1.079)"><g class="m a6"><use href="#c-rod"/></g></g>
    <g transform="translate(495 83) rotate(3) scale(1.073)"><g class="m b2"><use href="#c-strand"/></g></g>
    <g transform="translate(880 55) rotate(187) scale(1.078)"><g class="m a5"><use href="#c-rod"/></g></g>
    <g transform="translate(863 94) rotate(6) scale(0.949)"><g class="m b6"><use href="#c-strand"/></g></g>
    <g transform="translate(537 30) rotate(309) scale(0.905)"><g class="m b5"><use href="#c-strand"/></g></g>
    <g transform="translate(339 28) rotate(312) scale(0.975)"><g class="m a8"><use href="#c-rod"/></g></g>
    <g transform="translate(722 18) rotate(283) scale(0.923)"><g class="m a6"><use href="#c-rod"/></g></g>
    <g transform="translate(544 94) rotate(117) scale(1.041)"><g class="m a3"><use href="#c-rod"/></g></g>
    <g transform="translate(885 21) rotate(330) scale(0.953)"><g class="m b8"><use href="#c-strand"/></g></g>
    <g transform="translate(383 21) rotate(109) scale(0.926)"><g class="m a8"><use href="#c-rod"/></g></g>
    <g transform="translate(351 65) rotate(51) scale(0.957)"><g class="m a3"><use href="#c-rod"/></g></g>
    <g transform="translate(768 107) rotate(31) scale(0.981)"><g class="m a1"><use href="#c-rod"/></g></g>
    <g transform="translate(631 85) rotate(60) scale(1.047)"><g class="m b5"><use href="#c-strand"/></g></g>
    <g transform="translate(765 59) rotate(13) scale(0.992)"><g class="m b1"><use href="#c-strand"/></g></g>
    <g transform="translate(805 42) rotate(181) scale(0.96)"><g class="m b6"><use href="#c-strand"/></g></g>
    <g transform="translate(738 97) rotate(116) scale(1.035)"><g class="m a7"><use href="#c-rod"/></g></g>
    <g transform="translate(462 45) rotate(330) scale(0.909)"><g class="m b1"><use href="#c-strand"/></g></g>
    <g transform="translate(564 105) rotate(216) scale(0.942)"><g class="m a7"><use href="#c-rod"/></g></g>
    <g transform="translate(408 33) rotate(165) scale(1.037)"><g class="m b6"><use href="#c-strand"/></g></g>
    <g transform="translate(522 78) rotate(260) scale(1.05)"><g class="m a7"><use href="#c-rod"/></g></g>
    <g transform="translate(493 28) rotate(305) scale(0.92)"><g class="m a1"><use href="#c-rod"/></g></g>
    <g transform="translate(460 15) rotate(103) scale(0.913)"><g class="m b8"><use href="#c-strand"/></g></g>
    <g transform="translate(803 74) rotate(266) scale(1.001)"><g class="m b1"><use href="#c-strand"/></g></g>
    <g transform="translate(389 99) rotate(70) scale(1.031)"><g class="m b3"><use href="#c-strand"/></g></g>
    <g transform="translate(466 106) rotate(246) scale(0.903)"><g class="m a4"><use href="#c-rod"/></g></g>
    <g transform="translate(664 45) rotate(286) scale(0.987)"><g class="m a2"><use href="#c-rod"/></g></g>
    <g transform="translate(426 97) rotate(138) scale(0.955)"><g class="m a4"><use href="#c-rod"/></g></g>
    <g transform="translate(672 85) rotate(35) scale(0.917)"><g class="m a8"><use href="#c-rod"/></g></g>
    <g transform="translate(635 62) rotate(70) scale(0.934)"><g class="m a6"><use href="#c-rod"/></g></g>
    <g transform="translate(423 20) rotate(226) scale(0.957)"><g class="m a6"><use href="#c-rod"/></g></g>
    <g transform="translate(824 47) rotate(211) scale(0.993)"><g class="m b5"><use href="#c-strand"/></g></g>
    <g transform="translate(841 79) rotate(214) scale(0.922)"><g class="m b8"><use href="#c-strand"/></g></g>
    <g transform="translate(695 109) rotate(220) scale(1.024)"><g class="m b2"><use href="#c-strand"/></g></g>
    <g transform="translate(500 101) rotate(35) scale(1.076)"><g class="m b6"><use href="#c-strand"/></g></g>
    <g transform="translate(853 58) rotate(274) scale(1.037)"><g class="m a5"><use href="#c-rod"/></g></g>
    <g transform="translate(486 56) rotate(222) scale(0.914)"><g class="m b1"><use href="#c-strand"/></g></g>
    <g transform="translate(827 21) rotate(204) scale(1.03)"><g class="m b7"><use href="#c-strand"/></g></g>
    <g transform="translate(383 54) rotate(13) scale(1.027)"><g class="m b2"><use href="#c-strand"/></g></g>
    <g transform="translate(741 20) rotate(63) scale(0.902)"><g class="m a4"><use href="#c-rod"/></g></g>
    <g transform="translate(528 14) rotate(102) scale(0.977)"><g class="m a6"><use href="#c-rod"/></g></g>
    <g transform="translate(602 14) rotate(347) scale(1.031)"><g class="m b6"><use href="#c-strand"/></g></g>
    <g transform="translate(510 14) rotate(61) scale(1.09)"><g class="m a3"><use href="#c-rod"/></g></g>
    <g transform="translate(368 66) rotate(155) scale(1.086)"><g class="m a6"><use href="#c-rod"/></g></g>
    <g transform="translate(381 77) rotate(142) scale(1.014)"><g class="m a5"><use href="#c-rod"/></g></g>
    <g transform="translate(698 78) rotate(135) scale(1.018)"><g class="m a2"><use href="#c-rod"/></g></g>
    <g transform="translate(573 61) rotate(205) scale(1.092)"><g class="m a5"><use href="#c-rod"/></g></g>
    <g transform="translate(453 60) rotate(151) scale(0.942)"><g class="m b6"><use href="#c-strand"/></g></g>
    <g transform="translate(420 66) rotate(176) scale(1.002)"><g class="m a5"><use href="#c-rod"/></g></g>
    <g transform="translate(449 94) rotate(290) scale(0.912)"><g class="m a3"><use href="#c-rod"/></g></g>
    <g transform="translate(575 24) rotate(141) scale(1.055)"><g class="m a2"><use href="#c-rod"/></g></g>
    <g transform="translate(353 81) rotate(59) scale(1.031)"><g class="m b3"><use href="#c-strand"/></g></g>
    <g transform="translate(517 108) rotate(360) scale(0.942)"><g class="m a5"><use href="#c-rod"/></g></g>
    <g transform="translate(348 48) rotate(322) scale(0.939)"><g class="m b8"><use href="#c-strand"/></g></g>
    <g transform="translate(676 101) rotate(278) scale(1.005)"><g class="m b3"><use href="#c-strand"/></g></g>
    <g transform="translate(601 68) rotate(295) scale(1.05)"><g class="m a1"><use href="#c-rod"/></g></g>
    <g transform="translate(628 40) rotate(20) scale(0.927)"><g class="m b2"><use href="#c-strand"/></g></g>
    <g transform="translate(614 85) rotate(14) scale(0.965)"><g class="m a7"><use href="#c-rod"/></g></g>
    <g transform="translate(892 37) rotate(311) scale(1.003)"><g class="m b1"><use href="#c-strand"/></g></g>
    <g transform="translate(405 17) rotate(282) scale(0.952)"><g class="m b4"><use href="#c-strand"/></g></g>
    <g transform="translate(709 51) rotate(256) scale(1.077)"><g class="m a6"><use href="#c-rod"/></g></g>
    <g transform="translate(842 14) rotate(253) scale(1.045)"><g class="m a5"><use href="#c-rod"/></g></g>
    <g transform="translate(793 61) rotate(144) scale(1.091)"><g class="m a8"><use href="#c-rod"/></g></g>
    <g transform="translate(368 13) rotate(115) scale(1.028)"><g class="m b7"><use href="#c-strand"/></g></g>
    <g transform="translate(703 17) rotate(316) scale(1.036)"><g class="m b3"><use href="#c-strand"/></g></g>
    <g transform="translate(397 74) rotate(183) scale(0.957)"><g class="m a1"><use href="#c-rod"/></g></g>
    <g transform="translate(864 41) rotate(107) scale(1.001)"><g class="m a1"><use href="#c-rod"/></g></g>
</svg>
